<svg xmlns="http://www.w3.org/2000/svg" width="15.75" height="20.946" viewBox="0 0 15.75 20.946">
  <path id="Address_icon" data-name="Address icon" d="M.972,2.1c2.1-2.633,6.9-9.015,6.9-12.6A7.877,7.877,0,0,0,0-18.375,7.877,7.877,0,0,0-7.875-10.5c0,3.585,4.8,9.967,6.9,12.6a1.239,1.239,0,0,0,1.944,0ZM0-13.125a2.625,2.625,0,0,1,2.273,1.313,2.625,2.625,0,0,1,0,2.625A2.625,2.625,0,0,1,0-7.875,2.625,2.625,0,0,1-2.273-9.187a2.625,2.625,0,0,1,0-2.625A2.625,2.625,0,0,1,0-13.125Z" transform="translate(7.875 18.375)" fill="#fff"/>
</svg>
