<svg xmlns="http://www.w3.org/2000/svg" width="35.001" height="28" viewBox="0 0 35.001 28">
  <path id="ContactUs" data-name="Path 446" d="M4.824-.6a2.625,2.625,0,0,0-.41-3.052A6.11,6.11,0,0,1,2.625-7.875c0-3.473,3.489-7,8.75-7s8.75,3.527,8.75,7-3.489,7-8.75,7a11,11,0,0,1-2.067-.2,2.622,2.622,0,0,0-1.679.23q-.336.172-.689.328A17.846,17.846,0,0,1,4.211.47c.153-.252.3-.5.432-.744.06-.1.12-.213.175-.323ZM0-7.875A8.723,8.723,0,0,0,2.51-1.843c-.049.093-.1.191-.153.279a15.186,15.186,0,0,1-2,2.849A1.314,1.314,0,0,0,1.313,3.5a16.74,16.74,0,0,0,6.71-1.624c.263-.12.525-.246.777-.372a13.232,13.232,0,0,0,2.576.246c6.284,0,11.375-4.309,11.375-9.625S17.659-17.5,11.375-17.5,0-13.191,0-7.875ZM23.625,8.75A13.714,13.714,0,0,0,26.2,8.5c.252.126.514.252.777.372a16.74,16.74,0,0,0,6.71,1.624,1.31,1.31,0,0,0,.952-2.209,15.708,15.708,0,0,1-2-2.849c-.049-.093-.1-.186-.153-.279A8.727,8.727,0,0,0,35-.875c0-5.163-4.807-9.379-10.839-9.614A10.016,10.016,0,0,1,24.5-7.875v.033c4.769.366,7.875,3.691,7.875,6.967a6.088,6.088,0,0,1-1.788,4.222,2.626,2.626,0,0,0-.41,3.052c.06.109.12.219.175.323.137.246.284.492.432.744a17.284,17.284,0,0,1-2.729-.984q-.353-.156-.689-.328a2.622,2.622,0,0,0-1.679-.23,10.6,10.6,0,0,1-2.067.2,9.182,9.182,0,0,1-7.481-3.407,15.088,15.088,0,0,1-2.734.645A11.717,11.717,0,0,0,23.625,8.75Z" transform="translate(0.001 17.5)" fill="currentColor"/>
</svg>
